<?xml version="1.0" encoding="UTF-8" standalone="no"?>
<svg
   version="1.1"
   width="589.56653"
   height="127.09813"
   viewBox="0 0 589.56653 127.09813"
   id="svg47"
   sodipodi:docname="TailwindifyLogoDrafts.svg"
   inkscape:version="1.2.2 (732a01da63, 2022-12-09)"
   xml:space="preserve"
   xmlns:inkscape="http://www.inkscape.org/namespaces/inkscape"
   xmlns:sodipodi="http://sodipodi.sourceforge.net/DTD/sodipodi-0.dtd"
   xmlns="http://www.w3.org/2000/svg"
   xmlns:svg="http://www.w3.org/2000/svg"><defs
     id="defs51" /><sodipodi:namedview
     id="namedview49"
     pagecolor="#ffffff"
     bordercolor="#000000"
     borderopacity="0.25"
     inkscape:showpageshadow="2"
     inkscape:pageopacity="0.0"
     inkscape:pagecheckerboard="0"
     inkscape:deskcolor="#d1d1d1"
     showgrid="false"
     inkscape:zoom="1.1275245"
     inkscape:cx="219.06398"
     inkscape:cy="137.91275"
     inkscape:window-width="1920"
     inkscape:window-height="991"
     inkscape:window-x="-9"
     inkscape:window-y="-9"
     inkscape:window-maximized="1"
     inkscape:current-layer="svg47" /><path
     d="M 15.31097,73.560805"
     data-fill-palette-color="accent"
     fill="#4b91f1"
     stroke="transparent"
     id="path6-1-1-7"
     style="stroke-width:1.59665" /><circle
     cx="63.549072"
     cy="63.549072"
     fill="#4b91f1"
     stroke="transparent"
     stroke-width="0"
     fill-opacity="1"
     data-fill-palette-color="accent"
     id="ellipse8-7-1-1"
     r="63.549072" /><path
     d="m 50.779084,90.547124 a 5.0102976,5.0102976 0 0 0 5.010308,-5.010291 V 75.516218 a 1.6700991,1.6700991 0 0 0 -3.340194,0 v 10.020615 a 1.6700991,1.6700991 0 0 1 -1.670114,1.670081 H 20.394413 A 1.6700991,1.6700991 0 0 1 18.724316,85.536833 V 42.114256 a 1.6700991,1.6700991 0 0 1 1.670097,-1.670097 h 20.642431 v 8.628827 a 2.7834988,2.7834988 0 0 0 2.783512,2.783512 h 8.628842 v 10.298941 a 1.6700991,1.6700991 0 0 0 3.340194,0 V 50.164125 a 1.6700991,1.6700991 0 0 0 0,-0.311746 v 0 a 1.6478314,1.6478314 0 0 0 -0.14479,-0.411965 v -0.08911 a 1.6700991,1.6700991 0 0 0 -0.267218,-0.35628 L 43.887092,37.549244 A 1.6700991,1.6700991 0 0 0 43.53081,37.282049 H 43.4418 a 1.6478314,1.6478314 0 0 0 -0.411957,-0.144675 v 0 h -0.31176 -22.323652 a 5.0102976,5.0102976 0 0 0 -5.01029,5.010292 v 43.422579 a 5.0102976,5.0102976 0 0 0 5.01029,4.976889 z m -6.402028,-47.764838 5.711728,5.711725 h -5.711728 z"
     fill="#0023ff"
     data-fill-palette-color="accent"
     id="path712-5-1"
     style="fill:#ffffff;fill-opacity:1;stroke-width:1.11341" /><path
     d="m 111.42597,49.796696 a 1.6478314,1.6478314 0 0 0 -0.14462,-0.411946 v -0.0891 a 1.6700991,1.6700991 0 0 0 -0.26724,-0.356306 L 99.557242,37.549282 a 1.6700991,1.6700991 0 0 0 -0.356275,-0.267228 h -0.08912 a 1.6478314,1.6478314 0 0 0 -0.411984,-0.144673 v 0 H 98.388104 76.064392 a 5.0102976,5.0102976 0 0 0 -5.010291,5.010297 v 20.041184 a 1.6701056,1.6701056 0 0 0 3.340211,0 V 42.147595 a 1.6700991,1.6700991 0 0 1 1.67008,-1.670114 h 20.642436 v 8.628859 a 2.7834988,2.7834988 0 0 0 2.783484,2.783498 h 8.628888 v 33.646929 a 1.6700991,1.6700991 0 0 1 -1.6701,1.670096 H 76.064356 A 1.6700991,1.6700991 0 0 1 74.394264,85.536767 V 75.516165 a 1.6701026,1.6701026 0 0 0 -3.340193,0 v 10.020602 a 5.0102976,5.0102976 0 0 0 5.010285,5.010297 h 30.384714 a 5.0102976,5.0102976 0 0 0 5.01027,-5.010297 v -35.37269 a 1.6700991,1.6700991 0 0 0 0,-0.311766 z m -11.37895,-1.302685 v -5.711725 l 5.71177,5.711725 z"
     fill="#0023ff"
     data-fill-palette-color="accent"
     id="path714-8-2"
     style="fill:#ffffff;fill-opacity:1;stroke-width:1.11341" /><path
     d="m 33.922221,68.813553 a 1.6700991,1.6700991 0 0 0 1.670097,1.670112 h 51.884424 l -1.458536,1.469681 a 1.6700991,1.6700991 0 1 0 2.360394,2.338145 l 4.308854,-4.30886 a 1.6700991,1.6700991 0 0 0 0,-2.360401 L 88.3786,63.313374 a 1.6700991,1.6700991 0 1 0 -2.360394,2.360402 l 1.458536,1.458549 H 35.592318 a 1.6700991,1.6700991 0 0 0 -1.670097,1.681228 z"
     fill="#0023ff"
     data-fill-palette-color="accent"
     id="path716-1-4"
     style="fill:#ffffff;fill-opacity:1;stroke-width:1.11341" /><text
     xml:space="preserve"
     style="font-style:normal;font-variant:normal;font-weight:normal;font-stretch:normal;font-size:78.1086px;font-family:'Lucida Sans Unicode';-inkscape-font-specification:'Lucida Sans Unicode, @wght=300,wdth=87.0';font-variant-ligatures:normal;font-variant-caps:normal;font-variant-numeric:normal;font-variant-east-asian:normal;font-variation-settings:'wdth' 87, 'wght' 300;fill:#ffffff;fill-opacity:1;stroke:#ffffff;stroke-width:0.816445;stroke-linecap:square;stroke-linejoin:bevel"
     x="199.60693"
     y="85.622406"
     id="text2612-7-5-1"><tspan
       sodipodi:role="line"
       id="tspan2610-3-5-7"
       x="199.60693"
       y="85.622406"
       style="font-style:normal;font-variant:normal;font-weight:normal;font-stretch:normal;font-size:78.1086px;font-family:'Lucida Sans Unicode';-inkscape-font-specification:'Lucida Sans Unicode, @wght=300,wdth=87.0';font-variant-ligatures:normal;font-variant-caps:normal;font-variant-numeric:normal;font-variant-east-asian:normal;font-variation-settings:'wdth' 87, 'wght' 300;fill:#ffffff;fill-opacity:1;stroke:#ffffff;stroke-width:0.816445">tailwindify</tspan></text></svg>
