<?xml version="1.0" encoding="UTF-8" standalone="no"?>
<svg
   version="1.1"
   width="592.61414"
   height="144.04068"
   viewBox="0 0 592.61414 144.04068"
   id="svg47"
   sodipodi:docname="TailwindifyLogo1.svg"
   inkscape:version="1.2.2 (732a01da63, 2022-12-09)"
   xml:space="preserve"
   xmlns:inkscape="http://www.inkscape.org/namespaces/inkscape"
   xmlns:sodipodi="http://sodipodi.sourceforge.net/DTD/sodipodi-0.dtd"
   xmlns="http://www.w3.org/2000/svg"
   xmlns:svg="http://www.w3.org/2000/svg"><defs
     id="defs51"><inkscape:path-effect
       effect="powerstroke"
       id="path-effect3361"
       is_visible="true"
       lpeversion="1"
       offset_points="0.20755709,0.96327435 | 1.5,8.1551301 | 2.8,8.1551301"
       not_jump="false"
       sort_points="true"
       interpolator_type="CentripetalCatmullRom"
       interpolator_beta="0.2"
       start_linecap_type="butt"
       linejoin_type="round"
       miter_limit="4"
       scale_width="1"
       end_linecap_type="round" /></defs><sodipodi:namedview
     id="namedview49"
     pagecolor="#ffffff"
     bordercolor="#000000"
     borderopacity="0.25"
     inkscape:showpageshadow="2"
     inkscape:pageopacity="0.0"
     inkscape:pagecheckerboard="0"
     inkscape:deskcolor="#d1d1d1"
     showgrid="false"
     inkscape:zoom="1.1275245"
     inkscape:cx="219.06398"
     inkscape:cy="66.960852"
     inkscape:window-width="1920"
     inkscape:window-height="991"
     inkscape:window-x="-9"
     inkscape:window-y="-9"
     inkscape:window-maximized="1"
     inkscape:current-layer="svg47" /><path
     d="M 18.597024,83.345243"
     data-fill-palette-color="accent"
     fill="#4b91f1"
     stroke="transparent"
     id="path6-1"
     style="stroke-width:1.80607" /><circle
     cx="73.161911"
     cy="72.02034"
     fill="#4b91f1"
     stroke="transparent"
     stroke-width="0"
     fill-opacity="1"
     data-fill-palette-color="accent"
     id="ellipse8-7"
     r="71.884071" /><text
     xml:space="preserve"
     style="font-style:normal;font-variant:normal;font-weight:bold;font-stretch:normal;font-size:90.4207px;font-family:Bahnschrift;-inkscape-font-specification:'Bahnschrift, Bold';font-variant-ligatures:normal;font-variant-caps:normal;font-variant-numeric:normal;font-variant-east-asian:normal;fill:#000000;fill-opacity:1;stroke:#000000;stroke-width:0.94514;stroke-linecap:square;stroke-linejoin:bevel"
     x="168.25038"
     y="103.46293"
     id="text2612-7"><tspan
       sodipodi:role="line"
       id="tspan2610-3"
       x="168.25038"
       y="103.46293"
       style="font-style:normal;font-variant:normal;font-weight:bold;font-stretch:normal;font-size:90.4207px;font-family:Bahnschrift;-inkscape-font-specification:'Bahnschrift, Bold';font-variant-ligatures:normal;font-variant-caps:normal;font-variant-numeric:normal;font-variant-east-asian:normal;stroke-width:0.94514">Tailwindify</tspan></text><path
     d="m 58.717081,102.55946 a 5.6674404,5.6674404 0 0 0 5.66744,-5.667431 V 85.557133 a 1.8891468,1.8891468 0 0 0 -3.778285,0 v 11.334896 a 1.8891468,1.8891468 0 0 1 -1.889155,1.889133 H 24.347201 A 1.8891468,1.8891468 0 0 1 22.458059,96.892029 V 47.774198 a 1.8891468,1.8891468 0 0 1 1.889142,-1.889144 h 23.349861 v 9.760597 a 3.148578,3.148578 0 0 0 3.148576,3.148576 h 9.760598 v 11.649741 a 1.8891468,1.8891468 0 0 0 3.778285,0 V 56.879893 a 1.8891468,1.8891468 0 0 0 0,-0.352639 v 0 a 1.8639582,1.8639582 0 0 0 -0.163719,-0.465991 v -0.10074 a 1.8891468,1.8891468 0 0 0 -0.302271,-0.40301 L 50.921209,42.610539 a 1.8891468,1.8891468 0 0 0 -0.403021,-0.302271 h -0.10074 a 1.8639582,1.8639582 0 0 0 -0.465991,-0.16372 v 0 H 49.598818 24.347225 a 5.6674404,5.6674404 0 0 0 -5.66744,5.66744 v 49.117818 a 5.6674404,5.6674404 0 0 0 5.66744,5.629654 z M 51.47536,48.529859 57.936241,54.99074 H 51.47536 Z"
     fill="#0023ff"
     data-fill-palette-color="accent"
     id="path712"
     style="fill:#ffffff;fill-opacity:1;stroke-width:1.25943" /><path
     d="m 127.31831,56.464283 a 1.8639582,1.8639582 0 0 0 -0.16373,-0.465991 v -0.10074 a 1.8891468,1.8891468 0 0 0 -0.30226,-0.40302 l -12.95955,-12.88397 a 1.8891468,1.8891468 0 0 0 -0.40302,-0.302271 h -0.10071 a 1.8639582,1.8639582 0 0 0 -0.46599,-0.16372 v 0 h -0.35263 -25.251605 a 5.6674404,5.6674404 0 0 0 -5.66744,5.66744 V 70.48177 a 1.8891485,1.8891485 0 0 0 3.778296,0 V 47.812011 a 1.8891468,1.8891468 0 0 1 1.889144,-1.889155 h 23.349825 v 9.760599 a 3.148578,3.148578 0 0 0 3.14858,3.148575 h 9.76061 v 38.060017 a 1.8891468,1.8891468 0 0 1 -1.88917,1.889142 H 87.318784 A 1.8891468,1.8891468 0 0 1 85.42964,96.892047 V 85.557156 a 1.8891485,1.8891485 0 0 0 -3.778296,0 v 11.334891 a 5.6674404,5.6674404 0 0 0 5.66744,5.667433 h 34.369876 a 5.6674404,5.6674404 0 0 0 5.66745,-5.667433 v -40.01213 a 1.8891468,1.8891468 0 0 0 0,-0.352641 z M 114.44692,54.99074 v -6.460881 l 6.46089,6.460881 z"
     fill="#0023ff"
     data-fill-palette-color="accent"
     id="path714"
     style="fill:#ffffff;fill-opacity:1;stroke-width:1.25943" /><path
     d="m 39.649298,77.97536 a 1.8891468,1.8891468 0 0 0 1.889144,1.889154 h 58.689498 l -1.649852,1.662442 a 1.8891468,1.8891468 0 1 0 2.669982,2.644805 l 4.87401,-4.873998 a 1.8891468,1.8891468 0 0 0 0,-2.669995 l -4.87401,-4.873998 a 1.8891468,1.8891468 0 1 0 -2.669982,2.669994 l 1.649852,1.649853 H 41.538442 a 1.8891468,1.8891468 0 0 0 -1.889144,1.901743 z"
     fill="#0023ff"
     data-fill-palette-color="accent"
     id="path716"
     style="fill:#ffffff;fill-opacity:1;stroke-width:1.25943" /></svg>
