<?xml version="1.0" encoding="UTF-8" standalone="no"?>
<svg
   version="1.1"
   width="367.44559"
   height="57.992649"
   viewBox="0 0 367.44559 57.992649"
   id="svg47"
   sodipodi:docname="TailwindifyLogoDrafts.svg"
   inkscape:version="1.2.2 (732a01da63, 2022-12-09)"
   xml:space="preserve"
   xmlns:inkscape="http://www.inkscape.org/namespaces/inkscape"
   xmlns:sodipodi="http://sodipodi.sourceforge.net/DTD/sodipodi-0.dtd"
   xmlns="http://www.w3.org/2000/svg"
   xmlns:svg="http://www.w3.org/2000/svg"><defs
     id="defs51" /><sodipodi:namedview
     id="namedview49"
     pagecolor="#ffffff"
     bordercolor="#000000"
     borderopacity="0.25"
     inkscape:showpageshadow="2"
     inkscape:pageopacity="0.0"
     inkscape:pagecheckerboard="0"
     inkscape:deskcolor="#d1d1d1"
     showgrid="false"
     inkscape:zoom="1.1275245"
     inkscape:cx="219.06398"
     inkscape:cy="137.91275"
     inkscape:window-width="1920"
     inkscape:window-height="991"
     inkscape:window-x="-9"
     inkscape:window-y="-9"
     inkscape:window-maximized="1"
     inkscape:current-layer="svg47" /><path
     d="M 7.7183093e-7,39.548789"
     data-fill-palette-color="accent"
     fill="#4b91f1"
     stroke="transparent"
     id="path6-1-1-7-3"
     style="stroke-width:1.73366" /><path
     d="m 38.511493,57.992626 a 5.4402099,5.4402099 0 0 0 5.44022,-5.440197 v -10.88043 a 1.8134033,1.8134033 0 0 0 -3.6268,0 v 10.88043 a 1.8134033,1.8134033 0 0 1 -1.81342,1.81339 H 5.5196308 a 1.8134033,1.8134033 0 0 1 -1.81339,-1.81339 V 5.4039291 a 1.8134033,1.8134033 0 0 1 1.81339,-1.81339 H 27.933313 v 9.3692399 a 3.0223387,3.0223387 0 0 0 3.02235,3.02235 h 9.36925 v 11.18265 a 1.8134033,1.8134033 0 0 0 3.6268,0 v -13.02024 a 1.8134033,1.8134033 0 0 0 0,-0.3385 v 0 a 1.7892245,1.7892245 0 0 0 -0.15716,-0.44731 v -0.0967 a 1.8134033,1.8134033 0 0 0 -0.29015,-0.38685 L 31.028193,0.4472891 a 1.8134033,1.8134033 0 0 0 -0.38686,-0.29014 h -0.0967 A 1.7892245,1.7892245 0 0 0 30.097323,-8.9709546e-7 v 0 H 29.758823 5.5196608 A 5.4402099,5.4402099 0 0 0 0.07946077,5.4402091 V 52.588699 a 5.4402099,5.4402099 0 0 0 5.44020003,5.403937 z m -6.95137,-51.8633269 6.20184,6.2018299 h -6.20184 z"
     fill="#0023ff"
     data-fill-palette-color="accent"
     id="path712-5-1-3"
     style="fill:#ffffff;fill-opacity:1;stroke-width:1.20894" /><path
     d="m 104.36222,13.745589 a 1.7892245,1.7892245 0 0 0 -0.15716,-0.44731 v -0.0967 a 1.8134033,1.8134033 0 0 0 -0.29015,-0.38686 L 91.474963,0.4473091 a 1.8134033,1.8134033 0 0 0 -0.38685,-0.29016 h -0.0967 A 1.7892245,1.7892245 0 0 0 90.544103,-8.9709547e-7 v 0 h -0.33849 -24.23917 A 5.4402099,5.4402099 0 0 0 60.526233,5.4402091 V 27.201059 a 1.8134065,1.8134065 0 0 0 3.62681,0 V 5.4402091 a 1.8134033,1.8134033 0 0 1 1.8134,-1.81341 h 22.41364 v 9.3692699 a 3.0223387,3.0223387 0 0 0 3.02233,3.02234 h 9.369277 v 36.53404 a 1.8134033,1.8134033 0 0 1 -1.813417,1.81339 h -32.99189 a 1.8134033,1.8134033 0 0 1 -1.8134,-1.81339 v -10.88043 a 1.8134065,1.8134065 0 0 0 -3.62681,0 v 10.88043 a 5.4402099,5.4402099 0 0 0 5.44021,5.440197 h 32.99186 a 5.4402099,5.4402099 0 0 0 5.440207,-5.440197 v -38.40789 a 1.8134033,1.8134033 0 0 0 0,-0.3385 z M 92.006903,12.331129 V 6.1292991 l 6.20185,6.2018299 z"
     fill="#0023ff"
     data-fill-palette-color="accent"
     id="path714-8-2-5"
     style="fill:#ffffff;fill-opacity:1;stroke-width:1.20894" /><path
     d="m 20.208221,34.394209 a 1.8134033,1.8134033 0 0 0 1.81339,1.81341 h 56.336412 l -1.58371,1.59579 a 1.8134033,1.8134033 0 1 0 2.56293,2.53876 l 4.67859,-4.67857 a 1.8134033,1.8134033 0 0 0 0,-2.56295 l -4.67859,-4.67858 a 1.8134033,1.8134033 0 1 0 -2.56293,2.56295 l 1.58371,1.5837 H 22.021611 a 1.8134033,1.8134033 0 0 0 -1.81339,1.82549 z"
     fill="#0023ff"
     data-fill-palette-color="accent"
     id="path716-1-4-7"
     style="fill:#4b91f1;fill-opacity:1;stroke-width:1.20894" /><text
     xml:space="preserve"
     style="font-style:normal;font-variant:normal;font-weight:normal;font-stretch:normal;font-size:46.8105px;font-family:'Lucida Sans Unicode';-inkscape-font-specification:'Lucida Sans Unicode, @wght=300,wdth=87.0';font-variant-ligatures:normal;font-variant-caps:normal;font-variant-numeric:normal;font-variant-east-asian:normal;font-variation-settings:'wdth' 87, 'wght' 300;fill:#ffffff;fill-opacity:1;stroke:#ffffff;stroke-width:0.489296;stroke-linecap:square;stroke-linejoin:bevel"
     x="133.74271"
     y="43.398228"
     id="text2612-7-5-1-8"><tspan
       sodipodi:role="line"
       id="tspan2610-3-5-7-7"
       x="133.74271"
       y="43.398228"
       style="font-style:normal;font-variant:normal;font-weight:normal;font-stretch:normal;font-size:46.8105px;font-family:'Lucida Sans Unicode';-inkscape-font-specification:'Lucida Sans Unicode, @wght=300,wdth=87.0';font-variant-ligatures:normal;font-variant-caps:normal;font-variant-numeric:normal;font-variant-east-asian:normal;font-variation-settings:'wdth' 87, 'wght' 300;fill:#ffffff;fill-opacity:1;stroke:#ffffff;stroke-width:0.489296">tailwindify</tspan></text></svg>
